<?xml version="1.0" encoding="UTF-8"?>
<!DOCTYPE svg PUBLIC "-//W3C//DTD SVG 1.1//EN" "http://www.w3.org/Graphics/SVG/1.1/DTD/svg11.dtd">
<svg xmlns="http://www.w3.org/2000/svg" version="1.1" width="300px" height="292px" style="shape-rendering:geometricPrecision; text-rendering:geometricPrecision; image-rendering:optimizeQuality; fill-rule:evenodd; clip-rule:evenodd" xmlns:xlink="http://www.w3.org/1999/xlink">
<g><path style="opacity:0.568" fill="#a8a8a8" d="M 136.5,10.5 C 127.167,10.5 117.833,10.5 108.5,10.5C 111.897,9.80182 115.397,9.13515 119,8.5C 124.933,9.14758 130.766,9.81425 136.5,10.5 Z"/></g>
<g><path style="opacity:0.989" fill="#838383" d="M 108.5,10.5 C 117.833,10.5 127.167,10.5 136.5,10.5C 137.833,10.5 139.167,10.5 140.5,10.5C 140.611,11.1174 140.944,11.6174 141.5,12C 143.81,12.4966 146.143,12.6633 148.5,12.5C 171.949,17.9818 191.616,29.6484 207.5,47.5C 207.427,49.0269 208.094,50.0269 209.5,50.5C 222.729,64.958 231.229,81.958 235,101.5C 240.659,132.518 234.492,160.851 216.5,186.5C 213.978,188.002 213.978,189.335 216.5,190.5C 240.13,211.627 263.63,232.96 287,254.5C 289.697,258.344 290.53,262.344 289.5,266.5C 288.262,268.214 287.595,270.214 287.5,272.5C 285.582,276.912 282.249,279.746 277.5,281C 270.172,282.982 264.172,281.149 259.5,275.5C 257.167,272.997 255.001,270.331 253,267.5C 252.617,268.056 252.117,268.389 251.5,268.5C 243.508,261.841 235.841,254.841 228.5,247.5C 227.415,245.413 225.749,244.08 223.5,243.5C 221.833,242.5 220.5,241.167 219.5,239.5C 218.415,237.413 216.749,236.08 214.5,235.5C 212.833,234.5 211.5,233.167 210.5,231.5C 209.415,229.413 207.749,228.08 205.5,227.5C 200.807,223.139 196.141,218.805 191.5,214.5C 190.053,213.115 189.053,213.448 188.5,215.5C 152.002,239.748 113.668,242.915 73.5,225C 37.869,205.901 16.869,176.401 10.5,136.5C 10.3725,125.148 10.7059,113.815 11.5,102.5C 18.519,68.9449 36.519,43.1116 65.5,25C 72.5163,20.9891 79.8497,17.8224 87.5,15.5C 91.2583,15.6048 94.5917,14.6048 97.5,12.5C 100.876,10.9177 104.542,10.2511 108.5,10.5 Z M 150.5,30.5 C 151.93,31.5375 153.597,32.2041 155.5,32.5C 159.065,34.1157 162.731,35.4491 166.5,36.5C 166.973,37.9063 167.973,38.573 169.5,38.5C 172.331,40.4168 175.331,42.0834 178.5,43.5C 179.262,45.2624 180.596,46.2624 182.5,46.5C 187.473,50.8062 192.14,55.4729 196.5,60.5C 197.5,62.1667 198.833,63.5 200.5,64.5C 222.497,98.4724 224.83,133.806 207.5,170.5C 205.336,172.822 203.669,175.489 202.5,178.5C 197.822,183.179 193.489,188.179 189.5,193.5C 187.251,194.08 185.585,195.413 184.5,197.5C 177.156,203.176 169.156,207.843 160.5,211.5C 156.605,212.462 152.939,213.796 149.5,215.5C 124.207,221.296 99.8739,218.63 76.5,207.5C 74.8816,205.684 72.8816,204.351 70.5,203.5C 64.9525,200.221 59.9525,196.221 55.5,191.5C 53.8333,189.167 51.8333,187.167 49.5,185.5C 26.5146,155.449 21.348,122.449 34,86.5C 37.8214,77.5164 42.6547,69.183 48.5,61.5C 49.9063,61.0269 50.573,60.0269 50.5,58.5C 53.5,56.1667 56.1667,53.5 58.5,50.5C 60.0269,50.573 61.0269,49.9063 61.5,48.5C 64.4735,46.8532 67.1401,44.8532 69.5,42.5C 71.0269,42.573 72.0269,41.9063 72.5,40.5C 78.3258,38.0862 83.9924,35.4195 89.5,32.5C 94.7221,31.6128 99.7221,30.2795 104.5,28.5C 119.948,26.7659 135.281,27.4325 150.5,30.5 Z"/></g>
<g><path style="opacity:0.665" fill="#adadad" d="M 140.5,10.5 C 143.373,10.8023 146.039,11.469 148.5,12.5C 146.143,12.6633 143.81,12.4966 141.5,12C 140.944,11.6174 140.611,11.1174 140.5,10.5 Z"/></g>
<g><path style="opacity:0.573" fill="#acacac" d="M 97.5,12.5 C 94.5917,14.6048 91.2583,15.6048 87.5,15.5C 90.5046,13.7234 93.8379,12.7234 97.5,12.5 Z"/></g>
<g><path style="opacity:0.596" fill="#c0c0c0" d="M 150.5,30.5 C 152.698,30.1201 154.365,30.7868 155.5,32.5C 153.597,32.2041 151.93,31.5375 150.5,30.5 Z"/></g>
<g><path style="opacity:0.169" fill="#d2d2d2" d="M 104.5,28.5 C 99.7221,30.2795 94.7221,31.6128 89.5,32.5C 94.1119,30.0954 99.1119,28.762 104.5,28.5 Z"/></g>
<g><path style="opacity:0.149" fill="#cecece" d="M 166.5,36.5 C 168.027,36.427 169.027,37.0937 169.5,38.5C 167.973,38.573 166.973,37.9063 166.5,36.5 Z"/></g>
<g><path style="opacity:0.02" fill="#c5c5c5" d="M 72.5,40.5 C 72.0269,41.9063 71.0269,42.573 69.5,42.5C 69.9731,41.0937 70.9731,40.427 72.5,40.5 Z"/></g>
<g><path style="opacity:0.541" fill="#bfbfbf" d="M 178.5,43.5 C 180.404,43.7376 181.738,44.7376 182.5,46.5C 180.596,46.2624 179.262,45.2624 178.5,43.5 Z"/></g>
<g><path style="opacity:0.38" fill="#c4c4c4" d="M 207.5,47.5 C 208.906,47.9731 209.573,48.9731 209.5,50.5C 208.094,50.0269 207.427,49.0269 207.5,47.5 Z"/></g>
<g><path style="opacity:0.035" fill="#d2d2d2" d="M 61.5,48.5 C 61.0269,49.9063 60.0269,50.573 58.5,50.5C 58.9731,49.0937 59.9731,48.427 61.5,48.5 Z"/></g>
<g><path style="opacity:0.02" fill="#c6c6c6" d="M 50.5,58.5 C 50.573,60.0269 49.9063,61.0269 48.5,61.5C 48.427,59.9731 49.0937,58.9731 50.5,58.5 Z"/></g>
<g><path style="opacity:0.755" fill="#afafaf" d="M 196.5,60.5 C 199.179,60.5246 200.512,61.858 200.5,64.5C 198.833,63.5 197.5,62.1667 196.5,60.5 Z"/></g>
<g><path style="opacity:0.476" fill="#a0a0a0" d="M 11.5,102.5 C 10.7059,113.815 10.3725,125.148 10.5,136.5C 9.83419,132.18 9.50086,127.68 9.5,123C 9.33904,115.936 10.0057,109.103 11.5,102.5 Z"/></g>
<g><path style="opacity:0.939" fill="#a0a0a0" d="M 207.5,170.5 C 207.56,174.394 205.893,177.061 202.5,178.5C 203.669,175.489 205.336,172.822 207.5,170.5 Z"/></g>
<g><path style="opacity:0.439" fill="#bdbdbd" d="M 49.5,185.5 C 51.8333,187.167 53.8333,189.167 55.5,191.5C 52.5,190.5 50.5,188.5 49.5,185.5 Z"/></g>
<g><path style="opacity:0.024" fill="#c6c6c6" d="M 216.5,186.5 C 215.595,187.964 215.595,189.298 216.5,190.5C 213.978,189.335 213.978,188.002 216.5,186.5 Z"/></g>
<g><path style="opacity:0.553" fill="#b5b5b5" d="M 189.5,193.5 C 188.415,195.587 186.749,196.92 184.5,197.5C 185.585,195.413 187.251,194.08 189.5,193.5 Z"/></g>
<g><path style="opacity:0.592" fill="#bcbcbc" d="M 70.5,203.5 C 72.8816,204.351 74.8816,205.684 76.5,207.5C 73.733,207.13 71.733,205.796 70.5,203.5 Z"/></g>
<g><path style="opacity:0.557" fill="#aaaaaa" d="M 160.5,211.5 C 157.447,213.968 153.78,215.301 149.5,215.5C 152.939,213.796 156.605,212.462 160.5,211.5 Z"/></g>
<g><path style="opacity:0.129" fill="#cacaca" d="M 191.5,214.5 C 190.391,214.557 189.391,214.89 188.5,215.5C 189.053,213.448 190.053,213.115 191.5,214.5 Z"/></g>
<g><path style="opacity:0.475" fill="#c1c1c1" d="M 205.5,227.5 C 207.749,228.08 209.415,229.413 210.5,231.5C 208.251,230.92 206.585,229.587 205.5,227.5 Z"/></g>
<g><path style="opacity:0.506" fill="#b3b3b3" d="M 214.5,235.5 C 216.749,236.08 218.415,237.413 219.5,239.5C 217.251,238.92 215.585,237.587 214.5,235.5 Z"/></g>
<g><path style="opacity:0.537" fill="#b5b5b5" d="M 223.5,243.5 C 225.749,244.08 227.415,245.413 228.5,247.5C 226.251,246.92 224.585,245.587 223.5,243.5 Z"/></g>
<g><path style="opacity:0.773" fill="#a5a5a5" d="M 259.5,275.5 C 256.236,273.906 253.569,271.573 251.5,268.5C 252.117,268.389 252.617,268.056 253,267.5C 255.001,270.331 257.167,272.997 259.5,275.5 Z"/></g>
<g><path style="opacity:0.027" fill="#c0c0c0" d="M 289.5,266.5 C 289.741,268.898 289.074,270.898 287.5,272.5C 287.595,270.214 288.262,268.214 289.5,266.5 Z"/></g>
</svg>
